<?xml version="1.0" encoding="utf-8"?><svg xmlns="http://www.w3.org/2000/svg" xmlns:xlink="http://www.w3.org/1999/xlink"><symbol viewBox="0 0 35.6 38.37" id="gift" xmlns="http://www.w3.org/2000/svg"><g clip-path="url(#aclip0_334:256)"><path d="M26.676 1.556c.991-.663 2.22-.507 2.836.028.266.233.527.628.252 1.195a3.494 3.494 0 01-3.128 1.97H22.85a4.097 4.097 0 01.055 2.812h8.906a4.078 4.078 0 00.108-3.61l-1.086-2.436a2.255 2.255 0 00-.585-.774c-.922-.8-2.703-1.112-4.195-.115l-4.09 2.738c.26.269.485.572.664.902l4.049-2.71zM15.096 7.56a4.116 4.116 0 01.056-2.812h-3.785a3.502 3.502 0 01-3.13-1.97c-.275-.566-.014-.962.253-1.194.33-.288.84-.466 1.393-.466.476 0 .984.132 1.442.438l4.048 2.71c.18-.331.404-.634.663-.902L11.947.626C10.455-.37 8.674-.06 7.754.741a2.213 2.213 0 00-.627.87l-1.044 2.34a4.074 4.074 0 00.108 3.61h8.905zm1.208 0h5.392c.198-.401.311-.853.311-1.33A3.013 3.013 0 0019 3.222a3.013 3.013 0 00-3.008 3.008c0 .478.114.929.313 1.33zM1.202 11.032v3.678c0 1.105.766 2.034 1.794 2.286h13.93V8.678H3.556a2.357 2.357 0 00-2.354 2.354zm1.795 23.844A3.127 3.127 0 006.121 38h10.806V18.113H2.997v16.763zM34.444 8.678H21.075v8.317h13.928a2.357 2.357 0 001.794-2.286v-3.677a2.355 2.355 0 00-2.353-2.354zM21.075 38H31.88a3.127 3.127 0 003.124-3.124V18.113H21.075V38z"/></g><defs><clipPath id="aclip0_334:256"><path d="M0 0h38v38H0z"/></clipPath></defs></symbol><symbol viewBox="0 0 25 22.15" id="home" xmlns="http://www.w3.org/2000/svg"><path d="M3.399 23.017s-.023.56.524.56l6.302-.008.009-5.164s-.09-.851.736-.851h2.616c.976 0 .917.85.917.85l-.012 5.148h6.17c.693 0 .662-.695.662-.695v-9.522l-8.695-7.733-9.229 7.734v9.681z"/><path d="M0 12.616s.782 1.443 2.492 0l10.214-8.641 9.574 8.587c1.978 1.426 2.72 0 2.72 0L12.706 1.425 0 12.615zm22.047-8.661h-2.462l.01 2.987 2.452 2.081V3.955z"/></symbol><symbol viewBox="0 0 25 25" id="user" xmlns="http://www.w3.org/2000/svg"><path d="M12.5 0C5.596 0 0 5.597 0 12.5S5.596 25 12.5 25C19.403 25 25 19.403 25 12.5 25 5.596 19.403 0 12.5 0zm.038 18.397H7.122c0-3.905 3.43-3.904 4.19-4.925l.088-.465c-1.07-.542-1.824-1.849-1.824-3.376 0-2.013 1.309-3.645 2.924-3.645 1.614 0 2.924 1.632 2.924 3.645 0 1.514-.742 2.813-1.796 3.363l.099.53c.835.97 4.15 1.034 4.15 4.873h-5.34z"/></symbol></svg>