<?xml version="1.0" standalone="no"?>
<!DOCTYPE svg PUBLIC "-//W3C//DTD SVG 20010904//EN"
 "http://www.w3.org/TR/2001/REC-SVG-20010904/DTD/svg10.dtd">
<svg version="1.0" xmlns="http://www.w3.org/2000/svg"
  viewBox="0 0 184.000000 175.000000"
 preserveAspectRatio="xMidYMid meet">
<metadata>
Created by potrace 1.16, written by Peter Selinger 2001-2019
</metadata>
<g transform="translate(0.000000,175.000000) scale(0.100000,-0.100000)"
 stroke="none">
<path d="M852 1684 c-131 -67 -94 -265 52 -281 115 -13 200 106 151 211 -35
73 -131 106 -203 70z"/>
<path d="M602 1498 c-59 -29 -107 -63 -162 -115 -68 -63 -142 -161 -162 -213
-4 -8 -13 -32 -22 -53 -16 -37 -16 -38 6 -46 20 -7 26 0 65 81 71 143 195 260
345 324 27 11 49 24 49 27 -1 4 -1 14 -1 22 0 24 -29 17 -118 -27z"/>
<path d="M1120 1526 c0 -9 0 -19 -1 -23 0 -3 22 -16 49 -27 146 -62 272 -179
341 -316 22 -45 41 -89 41 -96 0 -9 11 -14 30 -14 l29 0 -14 41 c-37 105 -89
185 -179 274 -70 70 -108 99 -166 127 -96 47 -130 56 -130 34z"/>
<path d="M853 1335 c-12 -8 -24 -27 -27 -43 -5 -20 -17 -31 -51 -45 -41 -17
-46 -17 -67 -3 -34 24 -54 20 -98 -20 -48 -44 -58 -75 -35 -110 15 -24 15 -28
-2 -69 -14 -34 -25 -46 -45 -51 -38 -8 -58 -40 -58 -94 0 -54 20 -86 58 -94
20 -5 31 -17 45 -51 17 -41 17 -46 3 -67 -23 -33 -20 -53 15 -92 27 -31 33
-34 55 -24 l25 11 -33 34 -32 33 24 25 23 24 -25 58 c-14 32 -28 66 -31 75 -4
10 -19 18 -39 20 -32 3 -33 4 -33 48 0 44 1 45 33 48 20 2 35 10 39 20 3 9 17
43 31 75 l25 58 -24 25 -23 25 32 31 31 32 26 -24 25 -23 47 20 c27 12 60 26
75 31 20 8 27 19 30 44 3 32 4 33 48 33 44 0 45 -1 48 -33 2 -20 10 -35 20
-39 9 -3 43 -17 75 -31 l58 -25 25 24 25 23 31 -32 32 -31 -23 -25 -24 -25 25
-58 c14 -32 28 -66 31 -75 4 -10 19 -18 39 -20 32 -3 33 -4 33 -48 0 -44 -1
-45 -33 -48 -20 -2 -35 -10 -39 -20 -3 -9 -17 -43 -31 -75 l-25 -58 23 -24 24
-25 -32 -33 -33 -34 25 -11 c22 -10 28 -7 55 24 35 39 38 59 15 92 -14 21 -14
26 3 67 14 34 25 46 45 51 38 8 58 40 58 94 0 54 -20 86 -58 94 -20 5 -31 17
-45 51 -17 41 -17 45 -2 69 23 35 13 66 -35 110 -44 40 -64 44 -98 20 -21 -14
-26 -14 -67 3 -34 14 -46 25 -51 45 -8 38 -40 58 -94 58 -25 0 -55 -7 -67 -15z"/>
<path d="M822 1099 c-25 -13 -55 -39 -70 -62 -24 -37 -27 -49 -26 -127 2 -88
23 -184 51 -226 10 -17 13 -35 8 -63 -7 -40 -7 -40 -130 -100 -93 -46 -131
-70 -159 -103 l-37 -42 3 -136 c3 -127 4 -135 23 -135 19 0 20 8 25 132 6 161
6 161 169 240 l114 55 36 -34 c20 -18 48 -44 62 -56 l26 -23 65 56 65 55 104
-49 c57 -27 120 -63 139 -79 l35 -30 5 -133 c5 -126 6 -134 25 -134 19 0 20 8
23 125 2 78 -2 135 -9 152 -19 45 -76 88 -195 145 -110 52 -112 54 -119 92 -4
27 -2 47 8 63 24 37 45 120 52 207 7 71 5 85 -15 126 -32 67 -85 99 -169 103
-53 2 -75 -1 -109 -19z m125 -494 c19 3 41 9 49 12 10 4 14 -3 14 -25 0 -23
-10 -38 -45 -67 -50 -40 -47 -41 -107 14 -26 23 -36 59 -22 73 3 3 21 2 41 -4
20 -5 51 -7 70 -3z"/>
<path d="M172 988 l-53 -30 3 -71 3 -71 58 -34 c64 -38 66 -38 146 13 l41 25
0 69 0 69 -55 31 c-30 17 -63 31 -72 30 -10 0 -42 -14 -71 -31z"/>
<path d="M1505 990 c-10 -15 -13 -187 -4 -201 9 -14 196 -16 210 -2 6 6 9 51
7 109 l-3 99 -102 3 c-66 2 -104 -1 -108 -8z"/>
<path d="M1560 698 c-1 -38 -55 -153 -104 -223 -40 -55 -45 -68 -36 -85 14
-26 21 -22 75 54 50 70 85 143 109 224 l15 52 -30 0 c-23 0 -29 -4 -29 -22z"/>
<path d="M234 675 c17 -66 52 -142 97 -209 63 -95 76 -106 87 -75 7 19 -1 37
-43 99 -28 42 -63 106 -76 143 -20 57 -27 67 -47 67 -21 0 -23 -4 -18 -25z"/>
</g>
</svg>
